HIERARCHY
ROOT Hips
{
	OFFSET 0.000000 0.000000 0.000000
	CHANNELS 6 Xposition Yposition Zposition Zrotation Yrotation Xrotation 
	JOINT LHipJoint
	{
		OFFSET 0.000000 0.000000 0.000000
		CHANNELS 3 Zrotation Yrotation Xrotation
		JOINT LeftUpLeg
		{
			OFFSET 1.363060 -1.794630 0.839290
			CHANNELS 3 Zrotation Yrotation Xrotation
			JOINT LeftLeg
			{
				OFFSET 2.448110 -6.726130 0.000000
				CHANNELS 3 Zrotation Yrotation Xrotation
				JOINT LeftFoot
				{
					OFFSET 2.562200 -7.039590 0.000000
					CHANNELS 3 Zrotation Yrotation Xrotation
					JOINT LeftToeBase
					{
						OFFSET 0.157640 -0.433110 2.322550
						CHANNELS 3 Zrotation Yrotation Xrotation
						End Site
						{
							OFFSET 0.000000 0.000000 0.000000
						}
					}
				}
			}
		}
	}
	JOINT RHipJoint
	{
		OFFSET 0.000000 0.000000 0.000000
		CHANNELS 3 Zrotation Yrotation Xrotation
		JOINT RightUpLeg
		{
			OFFSET -1.305520 -1.794630 0.839290
			CHANNELS 3 Zrotation Yrotation Xrotation
			JOINT RightLeg
			{
				OFFSET -2.542530 -6.985550 0.000000
				CHANNELS 3 Zrotation Yrotation Xrotation
				JOINT RightFoot
				{
					OFFSET -2.568260 -7.056230 0.000000
					CHANNELS 3 Zrotation Yrotation Xrotation
					JOINT RightToeBase
					{
						OFFSET -0.164730 -0.452590 2.363150
						CHANNELS 3 Zrotation Yrotation Xrotation
						End Site
						{
							OFFSET 0.000000 0.000000 0.000000
						}
					}
				}
			}
		}
	}
	JOINT LowerBack
	{
		OFFSET 0.000000 0.000000 0.000000
		CHANNELS 3 Zrotation Yrotation Xrotation
		JOINT Spine
		{
			OFFSET 0.028270 2.035590 -0.193380
			CHANNELS 3 Zrotation Yrotation Xrotation
			JOINT Spine1
			{
				OFFSET 0.056720 2.048850 -0.042750
				CHANNELS 3 Zrotation Yrotation Xrotation
				JOINT Neck
				{
					OFFSET 0.000000 0.000000 0.000000
					CHANNELS 3 Zrotation Yrotation Xrotation
					JOINT Neck1
					{
						OFFSET -0.054170 1.746240 0.172020
						CHANNELS 3 Zrotation Yrotation Xrotation
						JOINT Head
						{
							OFFSET 0.104070 1.761360 -0.123970
							CHANNELS 3 Zrotation Yrotation Xrotation
							End Site
							{
								OFFSET 0.000000 0.000000 0.000000
							}
						}
					}
				}
				JOINT LeftShoulder
				{
					OFFSET 0.000000 0.000000 0.000000
					CHANNELS 3 Zrotation Yrotation Xrotation
					JOINT LeftArm
					{
						OFFSET 3.362410 1.200890 -0.311210
						CHANNELS 3 Zrotation Yrotation Xrotation
						JOINT LeftForeArm
						{
							OFFSET 4.983000 -0.000000 -0.000000
							CHANNELS 3 Zrotation Yrotation Xrotation
							JOINT LeftHand
							{
								OFFSET 3.483560 -0.000000 -0.000000
								CHANNELS 3 Zrotation Yrotation Xrotation
								JOINT LeftFingerBase
								{
									OFFSET 0.000000 0.000000 0.000000
									CHANNELS 3 Zrotation Yrotation Xrotation
									JOINT LeftHandIndex1
									{
										OFFSET 0.715260 -0.000000 -0.000000
										CHANNELS 3 Zrotation Yrotation Xrotation
										End Site
										{
											OFFSET 0.000000 0.000000 0.000000
										}
									}
								}
								JOINT LThumb
								{
									OFFSET 0.000000 0.000000 0.000000
									CHANNELS 3 Zrotation Yrotation Xrotation
									End Site
									{
										OFFSET 0.000000 0.000000 0.000000
									}
								}
							}
						}
					}
				}
				JOINT RightShoulder
				{
					OFFSET 0.000000 0.000000 0.000000
					CHANNELS 3 Zrotation Yrotation Xrotation
					JOINT RightArm
					{
						OFFSET -3.136600 1.374050 -0.404650
						CHANNELS 3 Zrotation Yrotation Xrotation
						JOINT RightForeArm
						{
							OFFSET -5.241900 -0.000000 -0.000000
							CHANNELS 3 Zrotation Yrotation Xrotation
							JOINT RightHand
							{
								OFFSET -3.444170 -0.000000 -0.000000
								CHANNELS 3 Zrotation Yrotation Xrotation
								JOINT RightFingerBase
								{
									OFFSET 0.000000 0.000000 0.000000
									CHANNELS 3 Zrotation Yrotation Xrotation
									JOINT RightHandIndex1
									{
										OFFSET -0.622530 -0.000000 -0.000000
										CHANNELS 3 Zrotation Yrotation Xrotation
										End Site
										{
											OFFSET 0.000000 0.000000 0.000000
										}
									}
								}
								JOINT RThumb
								{
									OFFSET 0.000000 0.000000 0.000000
									CHANNELS 3 Zrotation Yrotation Xrotation
									End Site
									{
										OFFSET 0.000000 0.000000 0.000000
									}
								}
							}
						}
					}
				}
			}
		}
	}
}
MOTION
Frames: 7
Frame Time: 0.008333
49.089398 16.765539 -5.647471 -179.722384 2.296737 177.914618 2.131757 -2.714286 -1.775729 -8.742947 9.601386 -15.182302 5.663657 15.296275 47.437613 0.291196 2.075205 -12.792352 0.156400 2.548400 7.023800 -5.318157 4.443888 -7.273746 21.217540 -12.722324 13.739430 -5.787072 -17.003502 46.366807 -0.233716 1.245755 -7.281372 -0.000200 -0.100900 0.277100 0.735343 3.024558 17.780346 -0.305252 5.381490 -0.106622 -6.307436 3.132146 4.007945 2.681517 6.977653 -14.140920 4.075111 6.199592 19.812814 -1.618600 2.731000 17.067800 6.883623 -0.582125 0.085587 -83.873354 9.304384 27.501229 21.454848 -33.729755 -7.186954 -0.084052 0.584754 9.324753 8.520198 -23.877763 -3.621200 -7.125000 0.000000 0.000000 -12.681600 5.793800 11.631900 -6.574257 1.557849 2.075787 93.638724 -4.660102 17.591252 -13.201895 28.116038 -3.626162 -0.101655 -3.309051 13.172613 -8.236553 -40.117624 5.387000 7.125000 0.000000 0.000000 31.627700 -64.364700 -15.570300 
49.093796 16.795206 -5.773298 179.532867 1.620724 177.999862 2.129818 -2.699869 -1.791207 -8.754681 9.607555 -15.199376 5.658224 15.310805 47.433671 0.290221 2.080792 -12.794476 0.156400 2.548400 7.023800 -5.274017 4.413838 -7.165717 20.512747 -12.029179 12.205265 -6.440025 -17.515850 48.754550 -0.246403 2.049189 -7.009568 0.000000 -0.030100 0.082600 -0.115764 2.945036 17.800698 -0.346350 5.172980 -0.116986 -6.028790 3.019808 3.899078 2.717884 7.167321 -14.136179 3.994212 6.513022 19.728729 -1.657000 2.866300 17.041400 6.884090 -0.645804 0.073220 -83.205389 8.838312 27.850054 22.916962 -35.248346 -8.024063 -0.120019 0.583059 8.207226 9.814581 -23.710804 -4.151400 -7.125000 0.000000 0.000000 -11.873700 5.823000 10.848900 -6.535562 1.613486 2.117229 93.352689 -5.436946 17.990906 -13.423196 28.284098 -3.692275 -0.000460 -3.345139 12.702264 -6.931985 -41.254955 4.766300 7.125000 0.000000 0.000000 34.342300 -64.951000 -17.517300 
49.099014 16.825793 -5.898306 178.960327 0.877391 178.127689 2.133793 -2.685805 -1.810170 -8.766049 9.613617 -15.215999 5.652949 15.324904 47.429848 0.289308 2.086197 -12.796544 0.156400 2.548400 7.023800 -5.250048 4.365423 -7.050765 20.009119 -11.406487 10.566848 -7.030180 -17.942258 50.840754 -0.256730 2.873348 -6.739393 -0.000200 -0.079700 0.218800 -0.704003 2.845609 17.789488 -0.388560 4.970971 -0.123478 -5.902653 2.925541 3.849229 2.826547 7.371158 -14.222044 3.895743 6.833979 19.662985 -1.711800 3.013200 17.063300 6.882719 -0.702970 0.061648 -82.409163 8.002377 28.311697 24.211368 -36.519582 -8.787901 -0.162144 0.574187 6.827596 11.191382 -23.238429 -4.656900 -7.125000 0.000000 0.000000 -10.998000 6.143700 9.947300 -6.500690 1.663469 2.156917 93.182618 -6.144181 18.295533 -13.626528 28.462423 -3.761913 0.054016 -3.371891 12.496887 -6.152877 -42.248409 4.407500 7.125000 0.000000 0.000000 36.439500 -65.524800 -19.192600 
49.105356 16.854232 -6.020143 178.389915 0.036967 178.326385 2.133075 -2.670096 -1.828315 -8.778804 9.620417 -15.234688 5.647009 15.340769 47.425548 0.288319 2.092275 -12.798866 0.156400 2.548400 7.023800 -5.234985 4.306144 -6.929211 19.548418 -10.726132 8.848967 -7.589949 -18.316542 52.779331 -0.270353 3.335114 -6.897020 -0.001600 -0.256300 0.704200 -1.329559 2.694043 17.707672 -0.401768 4.687328 -0.133125 -5.640166 2.774500 3.807159 2.860961 7.624003 -14.248751 3.717761 7.259947 19.571422 -1.796100 3.181600 17.053900 6.889322 -0.768933 0.056030 -81.455057 7.259008 29.299303 25.698737 -37.922940 -9.692052 -0.204795 0.559874 4.903965 12.366768 -22.676211 -5.041200 -7.125000 0.000000 0.000000 -10.237000 6.575200 9.148300 -6.450489 1.693017 2.195125 92.872251 -6.822938 18.825326 -13.844651 28.629825 -3.829784 0.077219 -3.374866 12.301465 -5.915405 -43.096430 4.343400 7.125000 0.000000 0.000000 37.902400 -66.116800 -20.566600 
49.112619 16.881750 -6.143617 177.882980 -0.838402 178.479031 2.124070 -2.653874 -1.841996 -8.792037 9.627453 -15.254089 5.640825 15.357263 47.421071 0.287363 2.098580 -12.801260 0.156400 2.548400 7.023800 -5.232614 4.248178 -6.820045 19.161429 -10.101853 7.292151 -8.062091 -18.609614 54.387022 -0.281998 3.455629 -7.152430 -0.002300 -0.307800 0.845700 -1.958037 2.515913 17.652959 -0.372395 4.366252 -0.140859 -5.191463 2.584522 3.746551 2.779496 7.920794 -14.217721 3.571074 7.785495 19.481273 -1.828400 3.373100 17.023300 6.908567 -0.839059 0.059040 -81.176917 6.564733 29.210983 27.090352 -39.177380 -10.569692 -0.226245 0.564615 4.089993 13.177039 -22.805063 -5.409800 -7.125000 0.000000 0.000000 -9.731400 6.341600 8.726800 -6.383192 1.714945 2.229405 92.306682 -7.567424 19.537617 -14.105927 28.784642 -3.878040 0.179319 -3.336145 12.495301 -4.389581 -42.961268 3.423200 7.125000 0.000000 0.000000 39.259900 -65.664800 -21.003600 
49.117223 16.911007 -6.270467 177.428501 -1.711683 178.538178 2.097822 -2.649698 -1.875342 -8.810181 9.636811 -15.280535 5.632435 15.379672 47.415004 0.286179 2.107147 -12.804453 0.156400 2.548400 7.023800 -5.253390 4.209111 -6.755905 18.652838 -9.729934 5.853719 -8.448980 -18.828023 55.677537 -0.285623 3.485916 -7.205371 -0.003600 -0.385800 1.060000 -2.109440 3.405601 17.713121 -0.310484 3.819035 -0.124228 -4.897056 1.568355 3.758549 2.795403 8.234554 -14.201967 3.439864 8.300193 19.415185 -1.865300 3.579700 17.023100 6.893287 -0.904825 0.069737 -80.473397 5.886822 29.427579 28.652722 -40.511614 -11.582851 -0.247422 0.568678 2.958707 13.815939 -23.038056 -5.734800 -7.125000 0.000000 0.000000 -9.340500 6.019700 8.424800 -6.360244 1.739951 2.269875 91.797015 -8.245690 19.878417 -14.250947 28.811719 -3.868903 0.318408 -3.271044 13.615091 -1.787210 -41.646763 1.825100 7.125000 0.000000 0.000000 40.013000 -64.108800 -20.051800 
49.117632 16.941083 -6.396805 176.899078 -2.636771 178.584976 2.101031 -2.649169 -1.908134 -8.820312 9.642129 -15.295437 5.627793 15.392224 47.411635 0.285396 2.111974 -12.806295 0.156400 2.548400 7.023800 -5.213849 4.171303 -6.666816 17.873490 -9.460612 4.325308 -8.823897 -19.021290 56.917239 -0.296877 3.307276 -7.651678 -0.001100 -0.218400 0.600000 -2.364077 3.301025 17.629830 -0.375727 3.601781 -0.051778 -5.023064 1.459304 4.011482 2.935497 8.419475 -14.353698 3.401587 8.613352 19.326988 -1.862800 3.741900 17.000900 6.872289 -0.925525 0.077496 -79.299394 4.841787 30.123299 30.209427 -41.769471 -12.619439 -0.280482 0.564928 1.612527 14.709461 -23.069697 -6.128200 -7.125000 0.000000 0.000000 -8.776800 5.869200 7.929100 -6.344077 1.752933 2.306112 91.664003 -8.733615 19.979710 -14.361564 28.896654 -3.858408 0.407122 -3.218614 14.565577 -0.165015 -40.223709 0.863400 7.125000 0.000000 0.000000 39.771900 -62.716800 -18.629500 
